<?xml version="1.0" standalone="no"?>
<!DOCTYPE svg PUBLIC "-//W3C//DTD SVG 20010904//EN"
 "http://www.w3.org/TR/2001/REC-SVG-20010904/DTD/svg10.dtd">
<svg version="1.0" xmlns="http://www.w3.org/2000/svg"
 width="512.000000pt" height="512.000000pt" viewBox="0 0 512.000000 512.000000"
 preserveAspectRatio="xMidYMid meet">
<metadata>
Created by potrace 1.14, written by Peter Selinger 2001-2017
</metadata>
<g transform="translate(0.000000,512.000000) scale(0.100000,-0.100000)"
fill="#000000" stroke="none">
<path d="M4215 4931 c-3 -5 -1 -12 5 -16 5 -3 10 1 10 9 0 18 -6 21 -15 7z"/>
<path d="M4438 4503 c7 -3 16 -2 19 1 4 3 -2 6 -13 5 -11 0 -14 -3 -6 -6z"/>
<path d="M4838 4473 c12 -2 32 -2 45 0 12 2 2 4 -23 4 -25 0 -35 -2 -22 -4z"/>
<path d="M4915 4470 c-3 -5 -1 -10 4 -10 6 0 11 5 11 10 0 6 -2 10 -4 10 -3 0
-8 -4 -11 -10z"/>
<path d="M2004 3972 c-101 -48 -164 -142 -164 -245 0 -91 17 -135 80 -199 45
-46 66 -60 114 -73 166 -48 335 67 353 239 10 100 -40 200 -129 257 -44 29
-60 33 -132 36 -64 3 -89 0 -122 -15z m271 -141 c78 -36 105 -97 63 -145 -38
-45 -90 -45 -163 -1 -60 37 -60 37 -90 19 -84 -49 -101 -55 -140 -50 -68 8
-96 71 -58 126 37 54 84 68 228 69 96 0 128 -3 160 -18z"/>
<path d="M2935 3977 c-87 -40 -137 -122 -143 -235 -3 -53 1 -86 13 -119 74
-193 307 -207 401 -23 11 22 19 65 22 115 4 75 2 84 -30 145 -26 50 -44 71
-81 94 -56 34 -135 44 -182 23z"/>
<path d="M4860 3939 c81 -19 96 -20 55 -5 -22 9 -51 15 -65 15 -20 -1 -18 -3
10 -10z"/>
<path d="M3958 3685 c-10 -22 -9 -29 10 -47 18 -19 25 -20 47 -10 16 8 25 20
25 35 0 50 -62 66 -82 22z"/>
<path d="M3801 3624 c-12 -15 -21 -32 -21 -39 0 -23 41 -65 64 -65 37 0 66 28
66 64 0 64 -70 90 -109 40z"/>
<path d="M3966 3494 c-9 -8 -16 -19 -16 -24 0 -5 7 -16 16 -24 8 -9 19 -16 24
-16 5 0 16 7 24 16 9 8 16 19 16 24 0 5 -7 16 -16 24 -8 9 -19 16 -24 16 -5 0
-16 -7 -24 -16z"/>
<path d="M4899 3399 c14 -5 31 -15 38 -21 7 -6 13 -6 13 -1 0 11 -44 33 -63
32 -7 0 -1 -5 12 -10z"/>
<path d="M5018 3383 c7 -3 16 -2 19 1 4 3 -2 6 -13 5 -11 0 -14 -3 -6 -6z"/>
<path d="M2015 3370 c-135 -21 -229 -66 -388 -188 -60 -46 -129 -89 -161 -101
-65 -24 -142 -27 -189 -7 -31 13 -117 99 -117 117 0 5 -4 9 -10 9 -6 0 -10
-31 -10 -73 l0 -74 62 -89 c33 -49 66 -92 72 -96 16 -11 144 -9 196 3 24 5 79
27 122 48 l77 38 6 -41 c2 -23 21 -252 40 -511 44 -590 41 -556 55 -565 9 -5
-1 -109 -39 -426 -28 -231 -51 -443 -51 -473 0 -48 3 -57 38 -91 40 -40 91
-57 137 -46 36 9 92 62 104 99 6 18 24 156 41 307 17 151 40 348 50 437 11 89
20 166 20 172 0 6 18 11 40 11 22 0 40 -4 40 -8 0 -4 7 -61 15 -127 8 -66 30
-262 50 -435 19 -173 39 -331 45 -352 11 -41 66 -94 107 -104 15 -4 47 -2 71
5 38 10 47 9 63 -5 46 -42 137 -23 172 35 8 14 34 116 56 226 23 110 45 207
50 215 7 13 44 15 224 17 119 1 219 -2 221 -6 3 -4 23 -97 46 -206 22 -110 45
-212 51 -227 17 -43 54 -70 102 -75 39 -5 48 -1 77 24 l34 30 -18 159 c-27
248 -82 625 -136 935 -28 156 -57 338 -66 404 -19 141 -24 529 -8 545 8 8 22
-7 49 -47 70 -106 196 -273 218 -288 62 -43 115 -5 247 178 58 79 106 144 107
143 1 0 -12 -48 -27 -106 -33 -117 -36 -144 -17 -137 6 2 117 24 245 48 167
31 231 47 228 55 -3 7 -53 78 -113 158 l-107 145 -33 168 c-18 92 -33 169 -33
169 0 2 -165 -29 -168 -31 -2 -2 5 -49 16 -104 l19 -101 -26 -13 c-14 -7 -74
-73 -133 -147 -59 -74 -115 -141 -125 -147 -26 -19 -40 -2 -103 134 -115 242
-215 346 -375 390 -72 19 -266 27 -358 14 -105 -15 -167 -43 -221 -101 l-44
-47 -29 19 c-150 102 -366 161 -508 138z m2029 -102 c4 -24 9 -53 13 -65 5
-21 2 -23 -39 -23 l-45 0 -10 58 c-6 31 -9 59 -7 61 5 6 68 18 75 15 4 -2 9
-23 13 -46z m-1865 13 c11 -7 11 -18 -4 -65 l-18 -57 -46 3 -46 3 -14 53 c-12
46 -12 55 0 63 18 11 110 11 128 0z m1 -345 l13 -195 -39 -51 -39 -51 -28 33
c-59 68 -57 57 -42 253 8 99 14 186 15 193 0 8 18 12 53 12 l54 0 13 -194z
m420 -293 c35 -128 51 -242 51 -382 1 -129 -5 -180 -49 -446 -28 -165 -58
-364 -68 -442 -10 -78 -19 -141 -21 -140 -1 2 -18 134 -38 294 -31 264 -33
294 -20 320 8 15 15 48 15 72 0 25 9 162 20 305 20 250 22 265 57 359 19 53
37 97 39 97 2 0 8 -17 14 -37z"/>
<path d="M940 3201 l0 -169 -140 -204 c-138 -200 -156 -238 -128 -266 9 -9
100 -12 349 -12 294 0 340 2 353 16 33 32 38 23 -167 320 l-97 142 0 171 0
171 -85 0 -85 0 0 -169z m308 -460 c45 -66 82 -122 82 -125 0 -4 -137 -6 -305
-6 -168 0 -305 2 -305 5 0 2 26 42 58 87 31 46 68 100 82 120 l25 38 140 0
141 0 82 -119z"/>
<path d="M1064 2736 c-3 -8 -4 -23 -2 -33 5 -25 61 -25 66 0 7 37 -51 67 -64
33z"/>
<path d="M1162 2704 c-27 -19 -28 -45 -3 -68 23 -21 56 -14 71 14 7 13 4 24
-11 44 -24 30 -27 31 -57 10z"/>
<path d="M4865 2871 c28 -4 60 -12 73 -19 12 -7 22 -10 22 -8 0 14 -64 36
-102 35 l-43 -2 50 -6z"/>
<path d="M4877 2340 c23 -5 51 -14 63 -20 11 -6 20 -8 20 -5 0 11 -69 35 -97
34 -21 -1 -18 -3 14 -9z"/>
<path d="M5041 2085 c17 -17 90 -34 74 -17 -5 5 -28 15 -49 21 -35 9 -38 9
-25 -4z"/>
<path d="M4853 1813 c9 -2 23 -2 30 0 6 3 -1 5 -18 5 -16 0 -22 -2 -12 -5z"/>
<path d="M4908 1803 c6 -2 18 -2 25 0 6 3 1 5 -13 5 -14 0 -19 -2 -12 -5z"/>
<path d="M4433 773 c9 -2 23 -2 30 0 6 3 -1 5 -18 5 -16 0 -22 -2 -12 -5z"/>
<path d="M4861 746 c2 -2 22 -6 44 -10 29 -5 36 -4 25 3 -13 10 -79 16 -69 7z"/>
<path d="M4330 141 c-15 -29 -12 -94 5 -117 8 -10 15 -13 15 -7 0 9 7 10 23 4
25 -9 68 -8 85 3 16 9 15 109 0 124 -7 7 -36 12 -65 12 -41 0 -54 -4 -63 -19z
m60 -27 c0 -9 -5 -12 -12 -8 -10 5 -10 3 0 -7 11 -11 14 -12 21 0 12 19 46 9
49 -15 2 -14 -6 -27 -22 -38 -21 -13 -26 -14 -26 -3 0 10 -8 13 -24 10 -13 -3
-27 0 -30 6 -4 6 0 11 10 11 16 0 16 1 -1 14 -16 12 -17 16 -6 30 17 20 41 21
41 0z"/>
<path d="M4701 82 c1 -24 3 -29 6 -14 3 15 10 22 19 18 19 -7 18 -4 -6 17 -20
16 -20 16 -19 -21z"/>
<path d="M4595 96 c-22 -16 -14 -47 12 -45 17 1 17 2 1 6 -22 5 -24 33 -3 33
8 0 15 5 15 10 0 13 -3 13 -25 -4z"/>
<path d="M4646 92 c-2 -4 4 -8 14 -8 10 0 16 4 14 8 -3 4 -9 8 -14 8 -5 0 -11
-4 -14 -8z"/>
<path d="M4650 56 c7 -7 13 -7 20 0 6 6 3 10 -10 10 -13 0 -16 -4 -10 -10z"/>
</g>
</svg>
